# xmcd
#
# Track frame offsets:
#  150
#  9564
#  19899
#  31647
#  42299
#  54001
#  70571
#  81855
#  96451
#  106349
#  119396
#  131397
#  143399
#  157949
#  170337
#  182551
#
# Disc length: 2633 seconds
#
# Revision: 0
# Processed by: cddbd v1.5.2PL0 Copyright (c) Steve Scherf et al.
# Submitted via: AltoMP3_Maker 3.0
#
DISCID=b80a4710
DTITLE=Various Artist - Country Classics Vol18
DYEAR=1900
DGENRE=
TTITLE0=Blazing Saddles
TTITLE1=Looking Back To See
TTITLE2=Walking The Floor Over You
TTITLE3=If You Ain't Lovin' (You Ain't Livin")
TTITLE4=Me and Bobby McGee
TTITLE5=Blue Bayou
TTITLE6=Maybelline
TTITLE7=Smoke Smoke Smoke That Cigarette
TTITLE8=Hey Porter
TTITLE9=Jamb (On The Bayou)alaya
TTITLE10=Take Me Back To Tulsa
TTITLE11=Just Out Of Reach
TTITLE12=I'll Be All Smiles Tonight
TTITLE13=Barefooted Little Cowboy
TTITLE14=George's Playhouse Boogie
TTITLE15=Takw Me back To My Boots And Saddle
EXTD=
EXTT0=
EXTT1=
EXTT2=
EXTT3=
EXTT4=
EXTT5=
EXTT6=
EXTT7=
EXTT8=
EXTT9=
EXTT10=
EXTT11=
EXTT12=
EXTT13=
EXTT14=
EXTT15=
PLAYORDER=
